<?xml version="1.0" standalone="no"?><!DOCTYPE svg PUBLIC "-//W3C//DTD SVG 1.1//EN" "http://www.w3.org/Graphics/SVG/1.1/DTD/svg11.dtd"><svg t="1776349136816" class="icon" viewBox="0 0 1024 1024" version="1.1" xmlns="http://www.w3.org/2000/svg" p-id="5777" xmlns:xlink="http://www.w3.org/1999/xlink" width="32" height="32"><path d="M706.74048 890.68416c1.67936 7.34592 3.25888 14.17984 4.78464 20.41088C710.18496 903.97952 708.53504 897.24416 706.74048 890.68416L706.74048 890.68416zM706.74048 890.68416" p-id="5778" fill="#ffffff"></path><path d="M982.91456 276.05504C942.6752 178.71488 918.6048 155.52 918.6048 155.52s22.14528 56.31488-13.49504 97.60512c-35.64032 41.2992-190.74432 55.86432-235.09504 170.06464-13.87008 35.71968-20.5696 64.86016-23.5392 87.81952-25.08544-132.49024-86.56-276.49536-262.56-303.11424-198.57536-30.03008-216.2304 45.664-356.93056 38.4192 0 0 117.74976 31.0656 167.64032 163.60576 49.8944 132.544 151.68 343.78496 361.2352 362.42432 84.11008 7.58016 131.27424 46.57536 150.88 118.33984-31.2-136.98944-96.49536-460.31488-496.14592-619.51488 65.61024 8.2496 372.77056 35.10016 452.06016 375.16544-2.91968 40.07936 3.39584 98.36416 34.81472 185.67936 0 0-42.29888-142.94016-16.80896-183.4944 25.48992-40.5504 89.94944-44.59008 159.31008-71.87072C909.3248 549.3696 1040.1152 414.40512 982.91456 276.05504L982.91456 276.05504zM803.8848 455.92448c-41.07008 36.39552-115.44448 99.45984-128.94976 134.46016-4.88448 12.64512-9.89952 29.36448-11.94496 52.1152-2.1248-25.31584-4.71552-53.75488-8.78976-83.76576 9.74976-23.47904 32.4992-69.39008 73.36448-105.76 42.33984-37.69472 131.44576-95.07456 191.86048-150.95936C911.00032 336.6592 844.96512 419.52512 803.8848 455.92448L803.8848 455.92448zM803.8848 455.92448" p-id="5779" fill="#ffffff"></path></svg>